<?xml version="1.0" encoding="UTF-8" standalone="no"?>
<!DOCTYPE svg PUBLIC "-//W3C//DTD SVG 1.1//EN" "http://www.w3.org/Graphics/SVG/1.1/DTD/svg11.dtd">
<svg width="100%" height="100%" viewBox="0 0 1202 1202" version="1.1" xmlns="http://www.w3.org/2000/svg" xmlns:xlink="http://www.w3.org/1999/xlink" xml:space="preserve" xmlns:serif="http://www.serif.com/" style="fill-rule:evenodd;clip-rule:evenodd;stroke-linejoin:round;stroke-miterlimit:2;">
    <g transform="matrix(1,0,0,1,0.53499,0.602502)">
        <g id="背景" transform="matrix(1.171875,0,0,1.171875,0,0)">
            <path d="M1023.999,30.5L1023.999,1023.999C1022.503,1025.265 1022.19,1023.999 999.5,1023.999L-0,1023.999C-1.027,1022.092 0,1019.666 0,1017.5L0,0C2.148,-1.157 2.338,0 30.5,0L1023.999,0C1025.156,2.148 1023.999,2.338 1023.999,30.5Z" style="fill:rgb(1,66,218);"/>
            <path d="M684.483,475.206C681.955,475.848 682.021,475.985 679.479,475.801C678.711,472.452 678.674,472.579 677.662,469.371C676.741,466.453 675.303,467.399 675.272,468.439C675.166,472.107 678.085,475.949 678.505,476.502C680.328,483.306 680.727,483.083 683.232,489.592C684.56,493.045 680.703,495.486 678.709,490.414C677.092,486.304 677.254,486.317 675.706,481.358C669.861,465.969 669.145,466.304 664.776,450.422C663.609,446.177 660.75,447.423 661.289,449.533C666.184,468.696 672.808,478.556 673.492,482.496C670.143,493.008 681.712,501.191 675.474,503.439C669.121,505.728 675.545,498.227 658.807,463.307C658.628,462.934 656.601,458.705 656.349,458.752C654.498,459.096 654.782,459.697 655.387,461.524C661.515,480.024 661.98,479.784 667.773,498.41C672.069,512.222 670.64,512.947 669.465,513.056C665.692,513.409 662.876,489.425 659.47,488.922C652.838,487.944 659.041,502.936 658.724,516.534C658.69,518.018 655.363,520.254 654.77,515.492C653.797,507.678 652.392,490.546 648.254,494.167C645.334,496.722 660.468,536.355 652.614,529.355C648.189,525.412 650.977,503.976 631.985,468.092C628.359,461.241 625.239,451.632 623.732,454.591C623.025,455.98 638.32,486.532 642.818,507.424C648.266,532.728 650.439,543.83 646.607,541.294C644.221,539.715 641.17,504.249 636.498,504.408C627.077,504.728 632.692,496.451 625.152,473.613C624.347,471.175 615.087,449.345 609.579,455.565C605.501,460.169 621.674,471.963 629.861,514.432C630.494,517.719 637.527,554.201 635.793,555.856C634.807,556.797 632.744,556.164 632.455,553.506C631.162,541.609 625.977,508.994 622.027,498.83C621.959,498.593 621.172,495.859 621.172,495.859C619.108,493.411 619.946,498.323 619.986,498.556C620.245,499.655 622.444,508.995 621.76,512.556C620.612,518.527 622.816,520.164 624.694,545.479C625.969,562.664 629.377,565.066 624.567,565.932C618.678,566.992 622.251,562.683 621.007,553.577C617.738,529.642 619.015,529.535 618.59,527.482C615.148,510.841 614.552,510.989 614.332,509.53C611.399,490.078 594.326,462.357 593.318,461.84C586.467,458.324 597.077,478.562 597.13,478.675C614.591,515.754 614.432,542.375 614.446,542.507C615.931,556.619 620.849,570.933 613.355,566.708C610.447,565.068 613.444,537.117 601.811,502.116C599.303,494.569 599.956,503.318 599.985,503.499C601.863,515.077 600.959,515.117 603.546,526.492C605.033,533.032 598.701,532.365 598.893,535.493C599.921,552.215 602.172,567.709 602.577,570.495C603.114,574.191 595.758,574.513 595.974,569.489C597.09,543.599 591.377,519.869 590.221,516.617C586.695,506.705 587.934,528.204 587.801,529.536C586.53,542.218 591.423,544.177 585.636,547.767C580.469,550.972 587.345,571.308 582.623,572.855C576.639,574.815 578.782,570.273 578.653,553.5C578.56,541.46 575.366,521.498 572.807,521.976C572.179,522.093 572.359,529.817 572.375,530.5C572.733,545.857 565.811,547.715 571.883,573.425C572.374,575.504 572.829,577.428 589.591,593.409C602.779,605.984 607.122,601.368 609.257,607.586C611.463,614.013 611.366,613.962 613.791,620.374C615.725,625.486 617.767,623.557 621.721,619.765C622.879,618.655 626.716,617.702 629.231,621.656C636.408,632.941 620.181,654.213 618.637,669.519C617.172,684.042 613.613,696.415 620.852,716.37C622.336,720.461 629.938,734.551 630.748,735.214C634.783,738.516 633.503,739.448 636.399,743.572C636.925,744.321 637.541,745.006 638.054,745.765C639.975,748.608 636.918,755.307 632.742,751.212C629.177,747.717 628.884,754.121 628.866,754.529C628.324,766.371 629.645,766.513 629.7,767.49C629.959,772.075 629.419,771.996 629.788,776.48C630.27,782.352 625.147,782.475 624.794,778.473C624.769,778.19 623.578,771.217 621.244,778.415C620.12,781.878 619.053,781.125 615.655,780.007C614.237,779.54 589.813,782.5 589.523,782.434C583.996,781.165 598.494,774.071 600.161,773.003C610.75,766.222 611.42,738.973 608.028,733.88C604.174,728.091 604.627,723.37 604.63,716.5C604.636,704.794 608.644,704.532 604.548,693.484C602.999,689.304 605.013,685.13 604.12,682.636C601.753,676.023 604.358,674.439 602.841,670.369C598.164,657.817 598.65,657.707 598.161,656.656C595.432,650.789 596.248,650.455 593.683,646.381C589.498,639.734 592.308,638.911 590.834,635.366C587.149,626.5 587.759,626.297 587.388,625.552C578.626,607.929 583.785,603.875 571.29,596.863C548.821,584.253 553.078,578.648 535.74,568.099C532.75,566.279 527.075,559.478 526.781,564.541C525.599,584.879 531.858,598.021 533.776,604.417C536.718,614.228 533.896,614.268 532.704,624.52C531.371,635.986 547.143,625.05 549.098,637.553C551.375,652.11 523.755,663.05 514.908,673.854C491.56,702.366 490.846,702.425 482.64,730.541C481.173,735.569 475.122,744.441 479.845,750.246C483.649,754.924 483.63,762.65 482.214,765.345C478.656,772.114 475.367,767.705 475.366,767.704C469.516,763.923 473.288,793.619 470.392,796.397C464.077,802.454 462.191,800.506 458.709,801.997C457.443,802.539 448.279,806.463 441.629,804.137C437.714,802.767 437.573,804.462 433.462,803.765C431.786,803.481 430.129,803.093 428.451,802.827C428.158,802.781 417.224,807.344 422.51,801.508C426.244,797.387 418.813,800.04 417.453,799.749C408.789,797.898 418.131,795.272 419.137,793.319C420.342,790.98 420.224,790.869 422.441,789.402C423.518,788.689 423.43,788.638 436.25,776.244C437.941,774.609 438.729,773.847 450.244,750.371C454.404,741.892 456.889,743.159 457.232,739.456C458.873,721.71 459.405,721.436 470.401,707.421C480.029,695.149 494.415,653.116 495.131,650.411C497.585,641.138 496.739,632.486 502.761,628.959C509.268,625.146 508.859,624.55 511.864,617.655C513.446,614.026 511.785,609.098 511.889,607.528C512.758,594.375 511.387,581.865 511.485,581.496C514.236,571.208 512.619,571.143 511.448,560.505C511.086,557.214 509.728,554.976 509.481,553.504C504.989,526.698 496.672,528.352 494.88,502.483C494.321,494.414 501.036,492.447 503.618,484.472C503.85,483.702 504.781,483.272 505.013,482.502C505.184,481.934 503.904,481.219 503.547,481.615C503.025,482.195 503.023,483.13 502.501,483.71C498.518,483.968 499.467,482.232 498.242,479.632C497.225,477.476 491.677,480.754 490.488,474.502C489.44,468.989 486.464,471.455 482.69,467.323C478.614,462.86 478.189,463.318 474.456,458.533C473.008,456.677 471.172,457.239 468.919,452.314C467.427,449.054 467.645,447.892 463.517,447.349C459.38,446.804 458.546,440.139 455.408,441.179C442.261,445.539 444.117,448.443 442.784,456.542C440.419,470.919 417.587,488.678 388.765,468.134C387.128,466.968 373.485,455.298 374.088,449.452C374.994,440.66 390.221,440.491 383.091,434.99C374.495,428.358 373.768,434.121 353.649,443.815C341.918,449.467 316.115,472.019 309.545,471.177C302.454,470.267 303.498,473.587 288.17,485.039C270.812,498.009 238.968,530.34 212.321,507.718C207.837,503.911 203.681,503.307 199.198,492.629C198.409,490.75 197.665,491.227 188.132,469.682C185.359,463.415 176.007,470.379 134.772,434.18C130.013,430.002 112.39,410.843 109.251,400.57C107.411,394.551 105.628,395.372 103.987,389.368C99.769,373.931 96.901,374.495 97.329,362.497C97.472,358.501 93.197,335.51 107.525,328.545C111.369,326.676 116.869,329.768 122.663,326.835C134.651,320.766 170.55,343.767 161.518,347.535C155.392,350.091 116.717,315.204 119.494,357.5C119.695,360.561 120.589,374.174 132.203,393.672C139.436,405.814 139.227,406.041 156.395,422.61C160.539,426.61 160.384,426.693 165.264,429.841C170.908,433.482 179.416,445.74 181.044,427.478C181.053,427.369 181.063,408.178 181.064,406.499C181.066,401.982 180.61,402.05 180.686,397.503C180.76,393.056 181.975,393.08 180.898,385.43C180.617,383.434 174.015,365.81 183.524,370.456C196.302,376.7 196.076,439.085 197.638,443.457C201.092,453.13 211.158,450.789 223.463,453.698C229.193,455.053 252.716,452.443 263.465,448.408C288.979,438.832 287.681,436.331 293.773,432.982C313.474,422.153 338.771,415.797 360.836,387.75C362.291,385.901 371.082,371.22 382.488,371.726C383.77,371.782 388.004,374.073 391.602,372.77C404.275,368.177 405.46,377.684 411.46,376.252C432.766,371.169 448.685,353.856 459.194,360.943C479.73,374.79 468.872,392.348 468.822,399.502C468.767,407.589 469.377,411.173 465.437,419.472C463.855,422.803 469.542,422.135 473.217,424.903C474.49,425.861 475.58,427.047 476.847,428.013C481.546,431.594 484.165,424.516 490.028,429C492.747,431.079 489.749,448.781 499.871,438.929C504.898,434.035 498.68,451.391 504.318,447.254C506.598,445.58 503.026,441.303 509.217,437.077C517.295,431.563 502.83,419.868 513.858,411.936C523.292,405.151 524.345,405.322 531.697,409.069C535.387,410.949 540.997,405.523 543.745,412.425C546.002,418.091 554.678,415.23 555.598,414.926C556.548,414.613 561.613,414.715 561.098,418.461C560.151,425.353 564.69,419.182 566.731,417.854C569.79,415.865 568.818,415.095 571.032,412.175C572.316,410.48 576.378,408.31 578.516,413.491C579.356,415.526 585.419,410.382 586.428,414.526C587.393,418.49 568.195,430.616 575.531,429.856C578.354,429.563 577.508,426.021 585.515,421.529C587.309,420.523 593.138,409.896 593.863,415.393C594.3,418.707 578.218,430.892 584.526,429.672C585.258,429.531 585.035,429.328 592.398,421.404C592.898,420.865 597.943,415.435 599.49,415.556C604.156,415.922 588.971,428.667 595.391,426.13C596.715,425.606 605.068,415.143 607.675,418.354C609.038,420.033 613.117,423.19 614.37,422.307C621.573,417.229 622.39,419.853 622.26,420.488C622.079,421.371 618.609,426.811 624.441,423.39C627.252,421.742 626.991,421.528 629.603,419.688C631.394,418.427 632.031,423.22 634.436,420.445C637.08,417.394 636.718,415.06 640.302,416.935C643.55,418.635 638.149,422.152 640.414,422.694C643.942,423.54 643.497,420.325 650.5,420.488C652.745,420.54 652.45,418.288 660.46,418.917C668.415,419.54 677.867,416.213 682.562,417.077C690.312,418.503 690.192,417.074 694.554,415.637C698.773,414.248 705.211,420.733 712.506,416.509C718.886,412.816 718.726,419.914 718.713,420.504C718.694,421.332 721.851,425.681 722.842,419.544C723.545,415.182 729.367,414.366 730.185,420.537C730.451,422.542 734.158,427.181 737.264,424.231C744.52,417.34 745.495,421.829 745.485,422.501C745.4,428.088 748.202,426.151 753.576,424.8C758.032,423.68 754.991,409.471 762.536,411.311C768.591,412.787 770.355,417.934 783.408,421.802C790.752,423.978 789.623,426.067 796.665,429.101C804.336,432.405 805.787,434.404 813.181,447.662C816.146,452.978 812.382,460.88 822.468,463.607C824.759,464.227 823.481,466.088 830.676,470.19C837.984,474.357 837.148,475.471 844.296,479.794C845.036,480.241 844.95,480.253 853.151,485.994C865.466,494.614 867.51,505.717 876.419,509.719C879.844,511.257 884.132,524.916 884.607,525.364C887.722,528.293 885.666,529.433 887.883,532.223C893.298,539.036 891.015,540.387 896.052,546.859C899.109,550.787 897.939,551.615 916.594,574.426C916.822,574.704 921.79,580.779 917.409,578.841C915.368,577.938 914.664,577.627 899.017,557.869C880.625,534.645 883.841,532.396 878.22,526.775C870.864,519.419 872.815,517.742 864.867,511.076C859.701,506.742 862.209,504.475 850.872,495.097C850.249,494.581 823.28,473.453 819.371,475.259C816.342,476.657 816.496,488.866 820.522,489.044C831.607,489.535 833.584,485.618 840.062,493.867C842.504,496.976 843.122,496.304 845.424,499.55C848.883,504.43 845.641,505.094 846.387,519.504C846.424,520.216 843.47,537.471 838.509,537.721C835.192,537.888 831.059,533.543 830.107,538.411C828.65,545.864 826.124,579.574 821.287,606.455C819.836,614.519 822.051,614.81 818.822,625.605C816.432,633.596 820.791,633.976 823.035,641.643C825.062,648.569 826.645,647.61 837.892,659.133C847.474,668.951 860.117,677.559 862.191,678.971C870.495,684.625 869.764,685.49 878.236,690.907C882.755,693.796 890.057,700.045 900.516,699.726C905.527,699.573 902.603,695.35 907.589,692.676C911.643,690.502 913.241,689.427 921.18,698.749C925.29,703.576 915.959,717.424 922.532,718.279C933.851,719.752 932.407,723.895 931.391,724.212C930.542,724.476 924.079,722.931 924.545,726.493C924.819,728.586 931.098,730.556 932.596,733.447C934.509,737.138 942.865,745.753 936.578,746.854C933.226,747.44 918.869,732.52 921.464,739.519C922.19,741.476 927.912,740.241 924.639,746.578C923.345,749.083 925.667,749.089 925.622,752.505C925.556,757.591 928.724,757.112 927.773,761.557C926.983,765.246 926.819,769.711 923.419,768.734C920.329,767.846 922.231,765.866 918.86,763.089C917.596,762.048 917.119,758.683 915.557,758.329C912.64,757.669 911.434,758.534 911.263,755.507C911.001,750.837 909.663,751.029 910.057,746.45C910.592,740.238 907.888,741.479 905.773,739.269C904.313,737.742 902.113,719.884 888.31,712.88C877.286,707.286 879.775,703.162 855.596,692.293C841.692,686.043 837.767,683.742 836.285,682.873C830.018,679.198 829.877,679.545 824.275,674.775C816.811,668.421 816.402,674.907 814.293,684.451C811.828,695.611 811.84,706.557 811.842,708.49C811.844,710.209 806.366,733.494 811.596,749.468C812.769,753.052 813.007,752.939 813.599,757.487C814.374,763.446 819.703,760.602 820.436,760.753C821.312,760.934 830.586,760.596 827.657,768.564C827.428,769.188 823.004,775.976 821.606,776.685C814.187,780.447 814.24,780.527 813.536,780.683C805.386,782.495 801.339,777.96 801.398,784.501C801.423,787.184 802.78,788.031 800.271,789.03C793.479,791.733 793.569,791.711 786.478,793.394C782.995,794.22 782.973,791.938 779.355,793.033C770.043,795.851 766.208,791.608 757.52,790.381C757.185,790.334 749.59,790.218 749.752,787.527C750.088,781.961 764.712,783.872 773.976,769.809C780.902,759.294 789.771,758.93 787.758,751.416C786.279,745.895 787.182,745.827 789.787,737.595C791.39,732.531 792.494,732.423 790.595,727.466C788.757,722.668 792.249,717.953 788.885,706.382C788.165,703.903 787.495,683.664 791.479,675.489C791.953,674.516 793.338,666.866 785.652,660.312C777.458,653.323 790.06,648.052 781.948,641.007C777.873,637.468 771.304,626.577 779.517,624.561C783.38,623.613 783.152,622.248 787.417,622.884C794.801,623.984 791.806,608.735 789.992,595.433C781.445,532.743 764.042,528.451 762.568,521.484C762.248,519.971 762.117,513.891 758.491,514.449C752.587,515.36 751.726,536.468 744.759,523.353C736.5,507.805 743.557,490.695 741.72,478.47C737.709,451.771 738.394,450.587 735.408,449.854C734.319,449.586 724.703,447.224 721.467,448.417C720.221,448.876 719.127,450.873 716.569,449.383C707.274,443.973 707.223,448.826 707.446,449.521C708.176,451.793 711.366,451.788 708.5,455.5C705.555,459.312 716.623,477.632 710.5,476.499C706.319,475.724 700.571,437.103 693.835,445.77C691.366,448.948 698.674,454.616 697.057,462.416C696.317,465.987 703.108,480.396 697.394,478.789C693.668,477.741 697.133,475.022 692.517,469.482C690.437,466.987 697.079,462.334 685.182,446.764C682.988,443.893 681.632,445.962 682.235,447.564C685.177,455.375 692.727,462.618 690.243,465.19C686.611,468.95 689.163,469.64 692.844,481.384C695.399,489.533 689.195,486.82 688.216,484.615C687.538,483.086 686.606,476.211 685.582,475.404C685.29,475.173 684.775,475.436 684.483,475.206Z" style="fill:rgb(253,253,253);"/>
            <path d="M262.388,471.143C279.459,467.61 244.79,491.247 239.572,492.774C236.614,493.64 225.33,504.094 209.802,476.381C207.793,472.796 216.499,474.985 217.553,475.097C243.686,477.867 256.011,472.729 262.388,471.143Z" style="fill:rgb(3,67,218);"/>
            <path d="M785.076,468.512C784.396,473.564 783.019,473.371 783.658,478.486C783.671,478.589 783.339,491.365 783.31,492.485C783.079,501.353 762.017,483.228 770.44,465.47C772.392,461.355 780.206,457.921 782.03,460.837C785.066,465.689 784.814,467.448 785.076,468.512Z" style="fill:rgb(3,67,218);"/>
            <path d="M593.065,499.566C593.216,500.487 596.031,517.646 592.888,511.23C591.858,509.127 592.754,508.849 583.544,483.485C581.342,477.421 581.619,477.388 576.963,467.305C574.979,463.007 582.095,460.053 586.089,469.684C590.059,479.255 590.906,483.466 593.065,499.566Z" style="fill:rgb(6,69,218);"/>
            <path d="M563.257,546.545C564.596,552.644 565.25,566.601 561.833,560.275C552.368,542.754 555.739,541.741 553.813,514.499C553.541,510.661 555.904,512.087 556.113,512.723C556.522,513.968 556.023,514.078 560.178,528.596C560.579,529.997 560.581,530.003 563.257,546.545Z" style="fill:rgb(5,68,218);"/>
            <path d="M802.815,568.232C799.367,555.475 802.731,534.518 797.341,527.621C791.332,519.931 782.752,526.434 785.247,520.352C786.717,516.771 801.793,521.994 804.923,532.366C805.733,535.05 804.102,555.426 804.449,565.494C804.519,567.502 804.85,568.3 802.815,568.232Z" style="fill:rgb(13,74,219);"/>
            <path d="M580.888,513.501C581.134,520.534 581.198,520.437 582.192,527.426C584.202,541.565 579.93,523.843 573.234,502.585C571.21,496.158 569.93,493.99 576.451,492.242C578.129,491.792 579.809,492.392 580.888,513.501Z" style="fill:rgb(12,73,219);"/>
            <path d="M640.154,466.623C644.875,479.463 643.641,480.344 642.534,480.275C641.521,480.212 625.336,446.292 632.279,451.835C633.819,453.065 639.587,465.408 640.154,466.623Z" style="fill:rgb(10,72,219);"/>
            <path d="M675.706,481.358C674.968,481.737 674.23,482.117 673.492,482.496C672.808,478.556 666.184,468.696 661.289,449.533C660.75,447.423 663.609,446.177 664.776,450.422C669.145,466.304 669.861,465.969 675.706,481.358Z" style="fill:rgb(26,84,222);"/>
            <path d="M565.18,505.547C565.343,507.191 567.373,527.699 564.62,526.19C564.488,526.117 557.991,507.896 560.803,504.763C560.992,504.553 562.827,502.509 563.499,502.482C565.013,502.422 564.461,503.127 565.18,505.547Z" style="fill:rgb(7,69,218);"/>
            <path d="M683.677,467.53C683.26,467.909 682.844,468.287 682.428,468.666C680.041,465.081 680.209,465.064 678.222,460.643C672.655,448.257 670.817,446.045 673.443,446.82C675.215,447.343 678.194,448.223 683.677,467.53Z" style="fill:rgb(24,81,220);"/>
            <path d="M610.062,481.204C609.071,481.162 608.854,481.472 608.458,480.554C604.744,471.952 598.635,461.985 600.41,460.389C603.641,457.484 610.291,477.235 610.062,481.204Z" style="fill:rgb(21,79,221);"/>
            <path d="M392.351,431.713C390.297,429.904 387.913,429.381 390.453,428.428C391.218,428.14 396.168,427.74 397.591,428.303C399.123,428.91 401.011,436.809 392.351,431.713Z" style="fill:rgb(10,71,219);"/>
            <path d="M679.479,475.801L678.505,476.502C678.085,475.949 675.166,472.107 675.272,468.439C675.303,467.399 676.741,466.453 677.662,469.371C678.674,472.579 678.711,472.452 679.479,475.801Z" style="fill:rgb(159,186,240);"/>
            <path d="M798.577,502.437C800.476,508.386 795.021,503.005 795.8,501.643C796.442,500.52 798.405,502.283 798.577,502.437Z" style="fill:rgb(84,126,226);"/>
            <path d="M619.986,498.556C619.946,498.323 619.108,493.411 621.172,495.859C621.172,495.859 621.959,498.593 622.027,498.83C620.99,498.572 621.069,498.54 619.986,498.556Z" style="fill:rgb(200,215,242);"/>
            <path d="M502.501,483.71C503.023,483.13 503.025,482.195 503.547,481.615C503.904,481.219 505.184,481.934 505.013,482.502C504.781,483.272 503.85,483.702 503.618,484.472L502.501,483.71Z" style="fill:rgb(170,189,241);"/>
            <path d="M683.677,467.53C684.363,469.369 684.416,469.313 684.305,471.347C683.453,470.706 683.603,470.622 682.428,468.666C682.844,468.287 683.26,467.909 683.677,467.53Z" style="fill:rgb(202,217,247);"/>
            <path d="M564.834,544.5C565.275,544.238 565.129,543.41 565.57,543.148C566.674,542.492 566.768,546.465 565.904,545.945C565.39,545.636 565.347,544.809 564.834,544.5Z" style="fill:rgb(198,213,247);"/>
        </g>
    </g>
</svg>
